<svg version="1.2" xmlns="http://www.w3.org/2000/svg" viewBox="0 0 1730 1000" width="1730" height="1000">
	<title>Background-page-svg</title>
	<style>
		.s0 { fill: #fcfbfe } 
		.s1 { fill: #cd3030 } 
	</style>
	<path id="Forma_2" fill-rule="evenodd" class="s0" d="m691.5 76.4c0 0 35.7 96.6 31.5 190.5-5.5 123.6-33.8 122.7-75 243-18.4 53.6-7.8 62.2-39 106.5-46.8 66.4-139.5 97.5-139.5 97.5 0 0-41.3 2.4-75 19.5-141.6 71.6-100.6 167.1-247.5 211.5-74 22.3-164 2.1-164 2.1 0 0-33.4 72-8.5 92.4 15.5 12.6 57.5 1.6 57.5 1.6l406 40 599-533c0 0-70.8-176.2-186.5-317.1-69.7-85-159-154.5-159-154.5z"/>
	<path id="Forma_1" fill-rule="evenodd" class="s1" d="m1020.4-87.4c0 0-117.6 0.5-208.9 51.3-69.9 38.8-123 109.5-123 109.5 0 0 79.2 64.1 94.5 144 9.6 50.3 0.1 55.2-10.5 108-22 109.4-38.6 105.6-76.5 211.5-24.9 69.6-49.5 139.5-49.5 139.5 0 0-20.6 34.8-49.5 58.5-78.3 64.1-100.3 33-189 85.5-92.5 54.7-77.8 83-172.5 130.5-121.9 61.1-270 67.5-270 67.5l2609.5-7.4-14-1107z"/>
</svg>